<?xml version="1.0" encoding="utf-8"?>
<!-- Svg Vector Icons : http://www.onlinewebfonts.com/icon -->
<!DOCTYPE svg PUBLIC "-//W3C//DTD SVG 1.1//EN" "http://www.w3.org/Graphics/SVG/1.1/DTD/svg11.dtd">
<svg version="1.1" xmlns="http://www.w3.org/2000/svg" xmlns:xlink="http://www.w3.org/1999/xlink" x="0px" y="0px" viewBox="0 0 256 256" enable-background="new 0 0 256 256" xml:space="preserve">
<metadata> Svg Vector Icons : http://www.onlinewebfonts.com/icon </metadata>
<g><g><path fill="#000000" d="M230.3,31.8H25.7C17,31.8,10,38.9,10,47.5v121.7c0,8.7,7.1,15.7,15.7,15.7h47.2v21.2l0,0.2v17.8h0.7l39-39.3h117.6c8.7,0,15.7-7.1,15.7-15.7V47.5C246,38.9,239,31.8,230.3,31.8z M232.9,164c0,4.3-3.5,7.9-7.9,7.9h-99.9v-0.1h-17.8L86,193v-21.2h-0.2l0,0H31c-4.3,0-7.9-3.5-7.9-7.9V52.8c0-4.3,3.5-7.9,7.9-7.9H225c4.3,0,7.9,3.5,7.9,7.9V164z"/><path fill="#000000" d="M65.1,106.7c0,5.8,4.7,10.5,10.5,10.5s10.5-4.7,10.5-10.5c0-5.8-4.7-10.5-10.5-10.5S65.1,100.8,65.1,106.7L65.1,106.7z"/><path fill="#000000" d="M117.5,106.7c0,5.8,4.7,10.5,10.5,10.5c5.8,0,10.5-4.7,10.5-10.5c0-5.8-4.7-10.5-10.5-10.5C122.2,96.2,117.5,100.8,117.5,106.7z"/><path fill="#000000" d="M170,106.7c0,5.8,4.7,10.5,10.5,10.5c5.8,0,10.5-4.7,10.5-10.5c0-5.8-4.7-10.5-10.5-10.5C174.6,96.2,170,100.8,170,106.7z"/></g></g>
</svg>